<svg width="96" height="96" viewBox="0 0 96 96" fill="none" xmlns="http://www.w3.org/2000/svg">
<circle cx="48" cy="48" r="47.5" stroke="white"/>
<path d="M42.2787 6.11703C51.3209 4.98108 60.7447 6.54004 68.6895 11.1016C79.7194 17.2161 87.7175 28.5046 89.7111 40.9704C90.7493 47.9961 90.3204 55.3206 87.9009 62.0268C84.5171 71.703 77.4656 80.0185 68.4884 84.9587C60.2922 89.5439 50.5371 91.2064 41.273 89.7007C31.6925 88.192 22.7213 83.2223 16.3264 75.9303C9.7925 68.5822 5.97386 58.8763 5.77865 49.0463C5.50356 39.7635 8.42889 30.4333 13.9512 22.9698C20.6094 13.8438 31.0536 7.55175 42.2787 6.11703ZM45.9583 11.498C42.1486 12.3411 39.4363 15.6068 37.9159 19.0265C36.786 21.6327 34.6386 23.7922 31.9854 24.8157C28.1076 26.3924 23.8365 24.7979 19.8759 25.8481C16.4004 26.8539 13.8803 30.5339 14.4393 34.1459C15.2438 39.0121 19.1571 42.84 19.305 47.8867C19.6037 50.7176 17.7699 53.0457 16.6074 55.4478C15.1906 58.2581 14.0814 61.5298 14.9925 64.6773C16.359 68.2094 20.2959 70.3422 24.0109 69.9784C27.9005 69.7861 32.2545 69.7122 35.3928 72.4219C38.2353 75.2913 39.5013 79.3677 42.4621 82.1484C45.3106 84.7812 50.0549 85.0356 53.14 82.6632C56.9822 79.7227 57.8963 74.247 62.0491 71.6231C65.9979 69.4134 70.6832 70.7239 74.9395 70.008C78.4476 69.5495 81.4024 66.3103 81.2959 62.7309C81.2782 58.6486 78.4091 55.4566 77.0692 51.7826C75.7559 49.0255 76.0665 45.7124 77.5158 43.0766C79.0983 39.8788 81.3197 36.6278 80.9706 32.8975C80.5802 28.9691 76.9183 25.8541 73.0287 25.7801C69.0149 25.4015 64.4302 26.5374 61.005 23.8366C57.3047 21.3724 56.37 16.6363 53.1105 13.7787C51.2381 11.9831 48.5406 10.9714 45.9583 11.498Z" fill="white"/>
</svg>
